<svg viewBox="0 0 48 48" fill="none" xmlns="http://www.w3.org/2000/svg">
  <path d="M30 10C30 10 33 6 37 7C41 8 40 12 38 14L34 16" stroke="#22d3ee" stroke-width="2.5" stroke-linecap="round" fill="none"/>
  <circle cx="35.5" cy="10" r="1.5" fill="#22d3ee"/>
  <path d="M34 16C30 14 26 15 22 18C18 21 14 24 13 28C12 32 14 35 18 37C22 39 28 39 32 37C36 35 38 31 38 27C38 23 36 19 34 16Z" stroke="#22d3ee" stroke-width="2.5" stroke-linecap="round" stroke-linejoin="round" fill="none"/>
  <path d="M37 7L40 6" stroke="#22d3ee" stroke-width="2" stroke-linecap="round"/>
</svg>
